<mxfile host="app.diagrams.net" modified="2023-12-23T20:08:10.159Z" agent="Mozilla/5.0 (Windows NT 10.0; Win64; x64) AppleWebKit/537.36 (KHTML, like Gecko) Chrome/120.0.0.0 Safari/537.36" etag="3RHHvE2Rzo1IO9X_ij_z" version="22.1.11" type="github">
  <diagram name="Page-1" id="8VGNTg7oLzKtVpUdy8OX">
    <mxGraphModel dx="1008" dy="1692" grid="1" gridSize="10" guides="1" tooltips="1" connect="1" arrows="1" fold="1" page="1" pageScale="1" pageWidth="850" pageHeight="1100" math="0" shadow="0">
      <root>
        <mxCell id="0" />
        <mxCell id="1" parent="0" />
        <mxCell id="3wLslGgMofeVvNUtL3U6-37" style="edgeStyle=orthogonalEdgeStyle;rounded=0;orthogonalLoop=1;jettySize=auto;html=1;exitX=1;exitY=0.25;exitDx=0;exitDy=0;entryX=0;entryY=0.25;entryDx=0;entryDy=0;" edge="1" parent="1" source="3wLslGgMofeVvNUtL3U6-5" target="3wLslGgMofeVvNUtL3U6-6">
          <mxGeometry relative="1" as="geometry" />
        </mxCell>
        <mxCell id="3wLslGgMofeVvNUtL3U6-39" value="Upload" style="edgeLabel;html=1;align=center;verticalAlign=middle;resizable=0;points=[];" vertex="1" connectable="0" parent="3wLslGgMofeVvNUtL3U6-37">
          <mxGeometry x="-0.2779" relative="1" as="geometry">
            <mxPoint as="offset" />
          </mxGeometry>
        </mxCell>
        <mxCell id="3wLslGgMofeVvNUtL3U6-5" value="" style="rounded=0;whiteSpace=wrap;html=1;" vertex="1" parent="1">
          <mxGeometry x="70" y="60" width="120" height="320" as="geometry" />
        </mxCell>
        <mxCell id="3wLslGgMofeVvNUtL3U6-3" value="" style="fontColor=#0066CC;verticalAlign=top;verticalLabelPosition=bottom;labelPosition=center;align=center;html=1;outlineConnect=0;fillColor=#CCCCCC;strokeColor=#6881B3;gradientColor=none;gradientDirection=north;strokeWidth=2;shape=mxgraph.networks.laptop;" vertex="1" parent="1">
          <mxGeometry x="80" y="120" width="100" height="55" as="geometry" />
        </mxCell>
        <mxCell id="3wLslGgMofeVvNUtL3U6-4" value="" style="fontColor=#0066CC;verticalAlign=top;verticalLabelPosition=bottom;labelPosition=center;align=center;html=1;outlineConnect=0;fillColor=#CCCCCC;strokeColor=#6881B3;gradientColor=none;gradientDirection=north;strokeWidth=2;shape=mxgraph.networks.mobile;" vertex="1" parent="1">
          <mxGeometry x="105" y="210" width="50" height="100" as="geometry" />
        </mxCell>
        <mxCell id="3wLslGgMofeVvNUtL3U6-32" style="edgeStyle=orthogonalEdgeStyle;rounded=0;orthogonalLoop=1;jettySize=auto;html=1;exitX=1;exitY=0.25;exitDx=0;exitDy=0;entryX=0;entryY=0.5;entryDx=0;entryDy=0;" edge="1" parent="1" source="3wLslGgMofeVvNUtL3U6-6" target="3wLslGgMofeVvNUtL3U6-7">
          <mxGeometry relative="1" as="geometry" />
        </mxCell>
        <mxCell id="3wLslGgMofeVvNUtL3U6-33" style="edgeStyle=orthogonalEdgeStyle;rounded=0;orthogonalLoop=1;jettySize=auto;html=1;exitX=1;exitY=0.5;exitDx=0;exitDy=0;entryX=0;entryY=0.5;entryDx=0;entryDy=0;" edge="1" parent="1" source="3wLslGgMofeVvNUtL3U6-6" target="3wLslGgMofeVvNUtL3U6-9">
          <mxGeometry relative="1" as="geometry" />
        </mxCell>
        <mxCell id="3wLslGgMofeVvNUtL3U6-34" style="edgeStyle=orthogonalEdgeStyle;rounded=0;orthogonalLoop=1;jettySize=auto;html=1;exitX=1;exitY=0.75;exitDx=0;exitDy=0;entryX=0;entryY=0.75;entryDx=0;entryDy=0;" edge="1" parent="1" source="3wLslGgMofeVvNUtL3U6-6" target="3wLslGgMofeVvNUtL3U6-11">
          <mxGeometry relative="1" as="geometry" />
        </mxCell>
        <mxCell id="3wLslGgMofeVvNUtL3U6-6" value="LB" style="rounded=0;whiteSpace=wrap;html=1;" vertex="1" parent="1">
          <mxGeometry x="350" y="20" width="50" height="330" as="geometry" />
        </mxCell>
        <mxCell id="3wLslGgMofeVvNUtL3U6-7" value="" style="rounded=0;whiteSpace=wrap;html=1;" vertex="1" parent="1">
          <mxGeometry x="520" y="60" width="120" height="60" as="geometry" />
        </mxCell>
        <mxCell id="3wLslGgMofeVvNUtL3U6-45" style="edgeStyle=orthogonalEdgeStyle;rounded=0;orthogonalLoop=1;jettySize=auto;html=1;exitX=1;exitY=0.5;exitDx=0;exitDy=0;" edge="1" parent="1" source="3wLslGgMofeVvNUtL3U6-8" target="3wLslGgMofeVvNUtL3U6-41">
          <mxGeometry relative="1" as="geometry" />
        </mxCell>
        <mxCell id="3wLslGgMofeVvNUtL3U6-8" value="User-Service" style="rounded=0;whiteSpace=wrap;html=1;" vertex="1" parent="1">
          <mxGeometry x="530" y="70" width="120" height="60" as="geometry" />
        </mxCell>
        <mxCell id="3wLslGgMofeVvNUtL3U6-54" style="edgeStyle=orthogonalEdgeStyle;rounded=0;orthogonalLoop=1;jettySize=auto;html=1;exitX=0.5;exitY=0;exitDx=0;exitDy=0;entryX=0.5;entryY=1;entryDx=0;entryDy=0;" edge="1" parent="1" source="3wLslGgMofeVvNUtL3U6-9" target="3wLslGgMofeVvNUtL3U6-24">
          <mxGeometry relative="1" as="geometry" />
        </mxCell>
        <mxCell id="3wLslGgMofeVvNUtL3U6-9" value="" style="rounded=0;whiteSpace=wrap;html=1;" vertex="1" parent="1">
          <mxGeometry x="520" y="160" width="120" height="60" as="geometry" />
        </mxCell>
        <mxCell id="3wLslGgMofeVvNUtL3U6-43" style="edgeStyle=orthogonalEdgeStyle;rounded=0;orthogonalLoop=1;jettySize=auto;html=1;exitX=1;exitY=0.5;exitDx=0;exitDy=0;entryX=0;entryY=0.5;entryDx=0;entryDy=0;" edge="1" parent="1" source="3wLslGgMofeVvNUtL3U6-10" target="3wLslGgMofeVvNUtL3U6-42">
          <mxGeometry relative="1" as="geometry" />
        </mxCell>
        <mxCell id="3wLslGgMofeVvNUtL3U6-10" value="Metadata-service" style="rounded=0;whiteSpace=wrap;html=1;" vertex="1" parent="1">
          <mxGeometry x="530" y="175" width="120" height="60" as="geometry" />
        </mxCell>
        <mxCell id="3wLslGgMofeVvNUtL3U6-48" style="edgeStyle=orthogonalEdgeStyle;rounded=0;orthogonalLoop=1;jettySize=auto;html=1;exitX=0.5;exitY=0;exitDx=0;exitDy=0;entryX=0.5;entryY=1;entryDx=0;entryDy=0;" edge="1" parent="1" source="3wLslGgMofeVvNUtL3U6-11" target="3wLslGgMofeVvNUtL3U6-10">
          <mxGeometry relative="1" as="geometry" />
        </mxCell>
        <mxCell id="3wLslGgMofeVvNUtL3U6-11" value="" style="rounded=0;whiteSpace=wrap;html=1;" vertex="1" parent="1">
          <mxGeometry x="520" y="280" width="120" height="60" as="geometry" />
        </mxCell>
        <mxCell id="3wLslGgMofeVvNUtL3U6-47" value="" style="edgeStyle=orthogonalEdgeStyle;rounded=0;orthogonalLoop=1;jettySize=auto;html=1;" edge="1" parent="1" source="3wLslGgMofeVvNUtL3U6-12" target="3wLslGgMofeVvNUtL3U6-20">
          <mxGeometry relative="1" as="geometry" />
        </mxCell>
        <mxCell id="3wLslGgMofeVvNUtL3U6-12" value="Storage-Service" style="rounded=0;whiteSpace=wrap;html=1;" vertex="1" parent="1">
          <mxGeometry x="530" y="290" width="120" height="60" as="geometry" />
        </mxCell>
        <mxCell id="3wLslGgMofeVvNUtL3U6-15" value="MetadataDB" style="shape=datastore;whiteSpace=wrap;html=1;" vertex="1" parent="1">
          <mxGeometry x="890" y="160" width="60" height="60" as="geometry" />
        </mxCell>
        <mxCell id="3wLslGgMofeVvNUtL3U6-16" value="UserDB" style="shape=datastore;whiteSpace=wrap;html=1;" vertex="1" parent="1">
          <mxGeometry x="890" y="60" width="60" height="60" as="geometry" />
        </mxCell>
        <mxCell id="3wLslGgMofeVvNUtL3U6-20" value="Block Storage" style="rounded=0;whiteSpace=wrap;html=1;" vertex="1" parent="1">
          <mxGeometry x="760" y="260" width="190" height="190" as="geometry" />
        </mxCell>
        <mxCell id="3wLslGgMofeVvNUtL3U6-13" value="" style="image;aspect=fixed;perimeter=ellipsePerimeter;html=1;align=center;shadow=0;dashed=0;fontColor=#4277BB;labelBackgroundColor=default;fontSize=12;spacingTop=3;image=img/lib/ibm/vpc/BlockStorage.svg;" vertex="1" parent="1">
          <mxGeometry x="780" y="280" width="60" height="60" as="geometry" />
        </mxCell>
        <mxCell id="3wLslGgMofeVvNUtL3U6-17" value="" style="image;aspect=fixed;perimeter=ellipsePerimeter;html=1;align=center;shadow=0;dashed=0;fontColor=#4277BB;labelBackgroundColor=default;fontSize=12;spacingTop=3;image=img/lib/ibm/vpc/BlockStorage.svg;" vertex="1" parent="1">
          <mxGeometry x="870" y="370" width="60" height="60" as="geometry" />
        </mxCell>
        <mxCell id="3wLslGgMofeVvNUtL3U6-18" value="" style="image;aspect=fixed;perimeter=ellipsePerimeter;html=1;align=center;shadow=0;dashed=0;fontColor=#4277BB;labelBackgroundColor=default;fontSize=12;spacingTop=3;image=img/lib/ibm/vpc/BlockStorage.svg;" vertex="1" parent="1">
          <mxGeometry x="870" y="280" width="60" height="60" as="geometry" />
        </mxCell>
        <mxCell id="3wLslGgMofeVvNUtL3U6-19" value="" style="image;aspect=fixed;perimeter=ellipsePerimeter;html=1;align=center;shadow=0;dashed=0;fontColor=#4277BB;labelBackgroundColor=default;fontSize=12;spacingTop=3;image=img/lib/ibm/vpc/BlockStorage.svg;" vertex="1" parent="1">
          <mxGeometry x="780" y="370" width="60" height="60" as="geometry" />
        </mxCell>
        <mxCell id="3wLslGgMofeVvNUtL3U6-22" value="Queue" style="strokeWidth=2;html=1;shape=mxgraph.flowchart.direct_data;whiteSpace=wrap;" vertex="1" parent="1">
          <mxGeometry x="320" y="-50" width="100" height="60" as="geometry" />
        </mxCell>
        <mxCell id="3wLslGgMofeVvNUtL3U6-23" value="" style="rounded=0;whiteSpace=wrap;html=1;" vertex="1" parent="1">
          <mxGeometry x="520" y="-60" width="120" height="60" as="geometry" />
        </mxCell>
        <mxCell id="3wLslGgMofeVvNUtL3U6-24" value="Notification-Service" style="rounded=0;whiteSpace=wrap;html=1;" vertex="1" parent="1">
          <mxGeometry x="510" y="-50" width="120" height="60" as="geometry" />
        </mxCell>
        <mxCell id="3wLslGgMofeVvNUtL3U6-38" style="edgeStyle=orthogonalEdgeStyle;rounded=0;orthogonalLoop=1;jettySize=auto;html=1;exitX=0;exitY=0.5;exitDx=0;exitDy=0;entryX=1.028;entryY=0.608;entryDx=0;entryDy=0;entryPerimeter=0;" edge="1" parent="1" source="3wLslGgMofeVvNUtL3U6-6" target="3wLslGgMofeVvNUtL3U6-5">
          <mxGeometry relative="1" as="geometry" />
        </mxCell>
        <mxCell id="3wLslGgMofeVvNUtL3U6-40" value="Download" style="edgeLabel;html=1;align=center;verticalAlign=middle;resizable=0;points=[];" vertex="1" connectable="0" parent="3wLslGgMofeVvNUtL3U6-38">
          <mxGeometry x="0.368" relative="1" as="geometry">
            <mxPoint as="offset" />
          </mxGeometry>
        </mxCell>
        <mxCell id="3wLslGgMofeVvNUtL3U6-46" style="edgeStyle=orthogonalEdgeStyle;rounded=0;orthogonalLoop=1;jettySize=auto;html=1;exitX=1;exitY=0.5;exitDx=0;exitDy=0;entryX=0;entryY=0.7;entryDx=0;entryDy=0;" edge="1" parent="1" source="3wLslGgMofeVvNUtL3U6-41" target="3wLslGgMofeVvNUtL3U6-16">
          <mxGeometry relative="1" as="geometry" />
        </mxCell>
        <mxCell id="3wLslGgMofeVvNUtL3U6-41" value="Cache" style="rounded=0;whiteSpace=wrap;html=1;" vertex="1" parent="1">
          <mxGeometry x="720" y="70" width="120" height="60" as="geometry" />
        </mxCell>
        <mxCell id="3wLslGgMofeVvNUtL3U6-44" style="edgeStyle=orthogonalEdgeStyle;rounded=0;orthogonalLoop=1;jettySize=auto;html=1;exitX=1;exitY=0.5;exitDx=0;exitDy=0;entryX=0;entryY=0.7;entryDx=0;entryDy=0;" edge="1" parent="1" source="3wLslGgMofeVvNUtL3U6-42" target="3wLslGgMofeVvNUtL3U6-15">
          <mxGeometry relative="1" as="geometry" />
        </mxCell>
        <mxCell id="3wLslGgMofeVvNUtL3U6-42" value="Cache" style="rounded=0;whiteSpace=wrap;html=1;" vertex="1" parent="1">
          <mxGeometry x="710" y="170" width="120" height="60" as="geometry" />
        </mxCell>
        <mxCell id="3wLslGgMofeVvNUtL3U6-52" value="" style="endArrow=classic;html=1;rounded=0;exitX=0;exitY=0.5;exitDx=0;exitDy=0;exitPerimeter=0;entryX=0.5;entryY=0;entryDx=0;entryDy=0;" edge="1" parent="1" source="3wLslGgMofeVvNUtL3U6-22" target="3wLslGgMofeVvNUtL3U6-5">
          <mxGeometry relative="1" as="geometry">
            <mxPoint x="430" y="410" as="sourcePoint" />
            <mxPoint x="140" y="370" as="targetPoint" />
            <Array as="points">
              <mxPoint x="130" y="-20" />
            </Array>
          </mxGeometry>
        </mxCell>
        <mxCell id="3wLslGgMofeVvNUtL3U6-53" value="" style="shape=message;html=1;outlineConnect=0;" vertex="1" parent="3wLslGgMofeVvNUtL3U6-52">
          <mxGeometry width="20" height="14" relative="1" as="geometry">
            <mxPoint x="-10" y="-7" as="offset" />
          </mxGeometry>
        </mxCell>
        <mxCell id="3wLslGgMofeVvNUtL3U6-55" style="edgeStyle=orthogonalEdgeStyle;rounded=0;orthogonalLoop=1;jettySize=auto;html=1;exitX=0;exitY=0.5;exitDx=0;exitDy=0;entryX=1;entryY=0.5;entryDx=0;entryDy=0;entryPerimeter=0;" edge="1" parent="1" source="3wLslGgMofeVvNUtL3U6-24" target="3wLslGgMofeVvNUtL3U6-22">
          <mxGeometry relative="1" as="geometry" />
        </mxCell>
      </root>
    </mxGraphModel>
  </diagram>
</mxfile>
